<?xml version="1.0" encoding="UTF-8"?>
<svg xmlns="http://www.w3.org/2000/svg" xmlns:xlink="http://www.w3.org/1999/xlink" width="40pt" height="40pt" viewBox="0 0 40 40" version="1.1">
<g id="surface1">
<path style=" stroke:none;fill-rule:nonzero;fill:rgb(48.235294%,74.509804%,92.156863%);fill-opacity:1;" d="M 26.25 4.375 L 27.5 3.75 L 28.75 5.625 L 28.75 11.875 L 6.25 28.125 L 3.125 25 Z M 26.25 4.375 "/>
<path style=" stroke:none;fill-rule:nonzero;fill:rgb(52.156863%,79.607843%,97.254902%);fill-opacity:1;" d="M 3.125 13.75 L 6.25 10.625 L 28.75 28.125 L 28.75 33.75 L 26.875 36.25 Z M 3.125 13.75 "/>
<path style=" stroke:none;fill-rule:nonzero;fill:rgb(67.45098%,89.019608%,100%);fill-opacity:1;" d="M 27.5 3.75 L 28.75 5 L 28.75 34.375 L 27.5 36.25 L 28.125 36.875 L 36.875 32.5 L 36.875 6.25 L 28.125 3.125 Z M 27.5 3.75 "/>
<path style=" stroke:none;fill-rule:nonzero;fill:rgb(52.156863%,79.607843%,97.254902%);fill-opacity:1;" d="M 36.875 33.125 L 35.625 33.125 C 34.589844 33.125 33.75 32.285156 33.75 31.25 L 33.75 8.125 C 33.75 7.089844 34.589844 6.25 35.625 6.25 L 36.875 6.25 Z M 36.875 33.125 "/>
<path style=" stroke:none;fill-rule:nonzero;fill:rgb(55.294118%,42.352941%,62.352941%);fill-opacity:1;" d="M 34.375 8.125 L 33.125 8.125 C 32.78125 8.125 32.5 8.40625 32.5 8.75 C 32.5 9.09375 32.78125 9.375 33.125 9.375 L 34.375 9.375 C 34.71875 9.375 35 9.09375 35 8.75 C 35 8.40625 34.71875 8.125 34.375 8.125 Z M 34.375 8.125 "/>
<path style=" stroke:none;fill-rule:nonzero;fill:rgb(55.294118%,42.352941%,62.352941%);fill-opacity:1;" d="M 34.375 11.25 L 33.125 11.25 C 32.78125 11.25 32.5 11.53125 32.5 11.875 C 32.5 12.21875 32.78125 12.5 33.125 12.5 L 34.375 12.5 C 34.71875 12.5 35 12.21875 35 11.875 C 35 11.53125 34.71875 11.25 34.375 11.25 Z M 34.375 11.25 "/>
<path style=" stroke:none;fill-rule:nonzero;fill:rgb(55.294118%,42.352941%,62.352941%);fill-opacity:1;" d="M 34.375 14.375 L 33.125 14.375 C 32.78125 14.375 32.5 14.65625 32.5 15 C 32.5 15.34375 32.78125 15.625 33.125 15.625 L 34.375 15.625 C 34.71875 15.625 35 15.34375 35 15 C 35 14.65625 34.71875 14.375 34.375 14.375 Z M 34.375 14.375 "/>
<path style=" stroke:none;fill-rule:nonzero;fill:rgb(55.294118%,42.352941%,62.352941%);fill-opacity:1;" d="M 34.375 17.5 L 33.125 17.5 C 32.78125 17.5 32.5 17.78125 32.5 18.125 C 32.5 18.46875 32.78125 18.75 33.125 18.75 L 34.375 18.75 C 34.71875 18.75 35 18.46875 35 18.125 C 35 17.78125 34.71875 17.5 34.375 17.5 Z M 34.375 17.5 "/>
<path style=" stroke:none;fill-rule:nonzero;fill:rgb(55.294118%,42.352941%,62.352941%);fill-opacity:1;" d="M 34.375 20.625 L 33.125 20.625 C 32.78125 20.625 32.5 20.90625 32.5 21.25 C 32.5 21.59375 32.78125 21.875 33.125 21.875 L 34.375 21.875 C 34.71875 21.875 35 21.59375 35 21.25 C 35 20.90625 34.71875 20.625 34.375 20.625 Z M 34.375 20.625 "/>
<path style=" stroke:none;fill-rule:nonzero;fill:rgb(55.294118%,42.352941%,62.352941%);fill-opacity:1;" d="M 34.375 23.75 L 33.125 23.75 C 32.78125 23.75 32.5 24.03125 32.5 24.375 C 32.5 24.71875 32.78125 25 33.125 25 L 34.375 25 C 34.71875 25 35 24.71875 35 24.375 C 35 24.03125 34.71875 23.75 34.375 23.75 Z M 34.375 23.75 "/>
<path style=" stroke:none;fill-rule:nonzero;fill:rgb(55.294118%,42.352941%,62.352941%);fill-opacity:1;" d="M 34.375 26.875 L 33.125 26.875 C 32.78125 26.875 32.5 27.15625 32.5 27.5 C 32.5 27.84375 32.78125 28.125 33.125 28.125 L 34.375 28.125 C 34.71875 28.125 35 27.84375 35 27.5 C 35 27.15625 34.71875 26.875 34.375 26.875 Z M 34.375 26.875 "/>
<path style=" stroke:none;fill-rule:nonzero;fill:rgb(55.294118%,42.352941%,62.352941%);fill-opacity:1;" d="M 34.375 30 L 33.125 30 C 32.78125 30 32.5 30.28125 32.5 30.625 C 32.5 30.96875 32.78125 31.25 33.125 31.25 L 34.375 31.25 C 34.71875 31.25 35 30.96875 35 30.625 C 35 30.28125 34.71875 30 34.375 30 Z M 34.375 30 "/>
<path style=" stroke:none;fill-rule:nonzero;fill:rgb(55.294118%,42.352941%,62.352941%);fill-opacity:1;" d="M 35.972656 5.4375 L 29.574219 2.746094 C 28.609375 2.300781 27.480469 2.46875 26.699219 3.171875 L 13.101562 15.09375 L 7.050781 10.28125 C 6.535156 9.878906 5.796875 9.925781 5.335938 10.386719 L 2.878906 12.839844 C 2.628906 13.089844 2.492188 13.4375 2.5 13.789062 C 2.507812 14.144531 2.664062 14.484375 2.921875 14.71875 L 8.070312 19.507812 L 2.941406 24.003906 C 2.671875 24.242188 2.511719 24.582031 2.5 24.941406 C 2.492188 25.296875 2.628906 25.648438 2.882812 25.898438 L 5.332031 28.351562 C 5.585938 28.601562 5.921875 28.730469 6.253906 28.730469 C 6.53125 28.730469 6.804688 28.644531 7.035156 28.46875 L 12.945312 24.039062 L 26.695312 36.824219 C 27.1875 37.265625 27.8125 37.496094 28.457031 37.496094 C 28.839844 37.496094 29.226562 37.414062 29.59375 37.246094 L 36.140625 33.90625 C 36.980469 33.476562 37.503906 32.625 37.503906 31.679688 L 37.503906 7.742188 C 37.503906 6.734375 36.902344 5.828125 35.972656 5.4375 Z M 28.125 27.054688 L 18.8125 19.640625 L 28.125 12.660156 Z M 26.96875 4.597656 C 27.140625 4.59375 27.433594 4.613281 27.667969 4.808594 C 28.046875 5.121094 28.125 5.769531 28.125 6.261719 L 28.125 11.097656 L 17.800781 18.835938 L 14.09375 15.886719 Z M 3.765625 13.722656 L 6.21875 11.269531 C 6.230469 11.261719 6.242188 11.253906 6.257812 11.253906 C 6.265625 11.253906 6.273438 11.257812 6.277344 11.261719 L 28.125 28.652344 L 28.125 33.757812 C 28.125 34.246094 28.046875 34.890625 27.675781 35.191406 C 27.445312 35.378906 27.148438 35.394531 26.980469 35.382812 L 3.769531 13.800781 C 3.769531 13.800781 3.765625 13.726562 3.765625 13.722656 Z M 6.28125 27.472656 C 6.265625 27.488281 6.234375 27.484375 6.21875 27.46875 L 3.765625 25.015625 L 3.765625 24.945312 L 8.992188 20.363281 L 12.015625 23.175781 Z M 36.253906 31.679688 C 36.253906 32.152344 35.992188 32.578125 35.570312 32.792969 L 29.046875 36.121094 C 28.824219 36.226562 28.585938 36.253906 28.351562 36.234375 C 28.382812 36.214844 28.414062 36.199219 28.445312 36.175781 C 29.0625 35.6875 29.375 34.875 29.375 33.757812 L 29.375 6.261719 C 29.375 5.148438 29.0625 4.328125 28.449219 3.832031 C 28.417969 3.804688 28.386719 3.789062 28.355469 3.765625 C 28.589844 3.75 28.835938 3.78125 29.066406 3.890625 L 35.488281 6.589844 C 35.953125 6.785156 36.253906 7.238281 36.253906 7.742188 Z M 36.253906 31.679688 "/>
</g>
</svg>
